<?xml version="1.0" encoding="utf-8"?>
<!-- Generator: Adobe Illustrator 26.0.1, SVG Export Plug-In . SVG Version: 6.00 Build 0)  -->
<svg version="1.1" xmlns="http://www.w3.org/2000/svg" xmlns:xlink="http://www.w3.org/1999/xlink" x="0px" y="0px"
	 viewBox="0 0 612 792" style="enable-background:new 0 0 612 792;" xml:space="preserve">
<style type="text/css">
	.st0{fill:none;}
</style>
<g id="Layer_1">
</g>
<g id="Layer_2">
</g>
<g id="Layer_3">
</g>
<g id="Layer_4">
</g>
<g id="Layer_5">
	<path d="M343.51,437.48c0.68,0.48,2.07-0.37,3-1c9.42-6.4,27.42-28.57,33-31c0.82-0.36,1.89-0.7,2.61-0.21
		c2.31,1.57-2.65,9.28-1.86,20.17c0.25,3.47,0.53,6.93,3.07,9.15c3.38,2.96,8.59,2.12,11.28,1.63c19.95-3.61,37.88-27.65,38.9-29.74
		c0.08-0.16,0.47-1,1-1c0.52,0,0.92,0.82,1,1c1.36,2.86-14.12,16.07-15,26c-0.08,0.86-0.23,2.9,1,4c1.45,1.29,4.08,0.65,6,0
		c14.29-4.8,30-21,30-21c1.73-1.79,5.18-5.43,6.15-4.78c0.56,0.37,0.09,2.03-0.15,2.78c-1.48,4.6-10.88,21.61-15,29
		c0.59-0.4,1.66-1.12,3-2c10.9-7.11,18.49-10.32,38-20c1.7-0.84,4.5-2.24,8-4l0,0c0,0,8.82-8.82,18.35-10.09
		c0.82-0.11,2.58-0.34,4.01,0.74c0.08,0.06,0.14,0.11,0.19,0.16c1.38,1.22,1.79,3.45,1.04,6.11c-1.13,4.02-2.3,8.03-3.19,12.11
		c-0.57,2.61-0.04,4.76,1.32,6.09c1.62,1.58,4.19,1.44,5.7,1.28c21.48-2.23,40.59-16.39,40.59-16.39c2.22-1.64,5.09-3.88,8.32-6.73
		c0.22,0.13,0.52,0.36,0.68,0.73c2.39,5.47-33.25,25.83-50.12,25.13c-1.93-0.08-5.72-0.37-7.86-2.99c-1.67-2.05-2.22-5.01-1.3-8.44
		c0.5-1.89,0.92-3.8,1.38-5.7c-0.2-0.16-0.39-0.32-0.59-0.48c-0.59,0.36-1.56,0.96-2.73,1.74c-8.22,5.46-11.21,9.54-14.78,8.74
		c-0.35-0.08-1.36-0.32-2.08-1.16c-1.13-1.33-0.84-3.33-0.62-5.03c0.11-0.82,0.31-1.46,0.31-1.46c0.26-0.78,0.27-0.88,0.23-0.93
		c-0.38-0.63-11.45,6.02-20.84,10.59c-1.43,0.7-24.95,12.1-29.07,16.89c-0.75,0.87-1.39,1.8-1.39,1.8
		c-2.08,3.23-2.02,6.76-21.18,38.6c-6.24,10.37-12.74,20.54-20.43,29.88c-6.32,7.69-13.64,14.09-23.48,17.01
		c-7.15,2.12-11.07-1.62-9.85-8.94c2.34-14.07,9.47-25.55,18.57-36.1c9.17-10.64,19.13-20.45,30.46-28.75
		c7.84-5.74,16-11.03,23.98-16.58c1.08-0.75,2.22-1.69,2.84-2.81c3.57-6.52,4.38-9.21,9.42-17.83c1.87-3.19,2.33-3.97,2.13-4.16
		c-0.62-0.59-6.37,5.62-14,11c-2.11,1.49-18.84,13.29-24,9c-1.04-0.87-2.93-3.49,0-13c-1.11,1.05-2.82,2.56-5.07,4.13
		c-9.23,6.46-25.44,12.48-32.93,5.87c-2.4-2.12-3.17-5.04-3.68-6.96c-1.35-5.1-0.3-10.79,0.84-16.19c0.53-2.53,0.94-3.63,0.56-3.85
		c-2.31-1.33-29.54,30.95-35.72,31.99c-0.49,0.08-1.88,0.32-2.72-0.47c-0.64-0.6-0.85-1.68-0.56-3.41
		c0.84-5.09,6.5-19.17,7.28-21.12c-10.3,5.35-18.4,10.35-24,14c-10.33,6.74-30.51,20.89-41.42,19.97c-1.18-0.1-4.23-0.36-6.27-2.61
		c-1.54-1.71-2.21-4.17-1.9-7.19c0.66-6.26,5.27-10.17,8.36-14.99c1.27-1.98,2.74-3.86,3.84-5.94c1.09-2.06,0.27-3.5-2.02-3.49
		c-3.89,0.02-7.79,0.3-11.68,0.56c-0.57,0.04-1.17,0.48-1.65,0.87c-10.3,8.28-21.9,14.21-34.27,18.66
		c-2.45,0.88-5.09,1.44-7.69,1.71c-2.71,0.28-4.84-0.43-6.19-1.86c-1.72-1.81-1.57-4.47-1.45-6.74c0.15-2.89,1.16-5.63,1.4-6.28
		c0.77-2.02,1.53-3.18,1.2-3.51c-0.43-0.43-2.4,1.1-3.25,1.76c-11,8.5-13.86,10.32-17.01,10.09c-0.62-0.05-2.43-0.2-3.75-1.51
		c-2.14-2.12-1.56-5.81-1.25-7.49c1.68-9.31,10.47-14.37,11.32-14.83c2.24-1.21,4.28-1.84,5.68-2.17
		c-6.13-0.81-10.67,0.19-13.39,1.06c-4.13,1.33-7.27,3.52-13.38,7.84c-5.36,3.79-8.97,6.8-8.97,6.8
		c-20.39,16.98-32.18,26.8-36.16,24.26c-6.15-3.92,5.67-37.59,9.9-36.96c0.17,0.03,0.5,0.14,0.86,0.73
		c-0.81,1.35-1.81,3.13-2.86,5.27c-4.98,10.19-9.8,26.34-6.29,28.47c5.36,3.26,31.51-25.4,50.74-36.41
		c1.39-0.8,5.32-3.08,10.78-3.55c2.75-0.23,10.74-1.12,15.6,3.6c2.34,2.27,3.65,5.55,4.87,5.18c1.07-0.33,1.07-3.14,2.3-3.28
		c0.49-0.06,0.9,0.34,0.93,0.37c1.17,1.15-0.82,4.69-3.78,11.51c-2.32,5.35-2.92,7.4-2.74,9.93c0.14,1.82,0.19,3.3,1.12,4.31
		c1.42,1.54,5.01,2.18,19.47-4.12c10.86-4.74,26.12-12.63,25-16c-0.23-0.68-0.91-0.54-1.51-1.56c-1.93-3.26,1.74-10.4,6.45-11.5
		c3.17-0.74,5.49,1.28,4.93,4.53c-0.27,1.57-1.05,3.06-1.67,4.56c-0.32,0.79-0.8,1.51-1.54,2.9c2.85,0,5.06,0,7.27,0
		c5.77,0,7.83,3.38,4.76,8.34c-3.3,5.32-7.29,10.21-10.45,15.6c-1.76,3-1.87,6.38-0.09,8.49c1.25,1.48,3.13,1.86,3.79,1.98
		c7.85,1.35,24.68-9.22,28.06-11.33c7.24-4.52,36.06-22.31,38-23c0.09-0.03,0.74-0.18,1.4-0.67c0.18-0.13,0.58-0.46,0.95-0.99
		c0.36-0.52,0.49-0.98,0.6-1.29c0.28-0.82,0.76-2.28,1.66-3.09c0.35-0.31,1.01-0.76,2.24-0.86c-1.79,4.32-4.31,10.52-7.17,18.09
		C344.61,431.48,342.21,436.56,343.51,437.48z M444.51,446.48c-17.45,11.1-30.66,22.01-39.91,30.43c0,0-12.44,8.64-24.54,29.42
		c-3.47,5.95-6.02,12.23-6.94,19.07c-0.46,3.43-0.21,5.51,0.96,6.47c1.91,1.55,5.47,0.08,6.75-0.44
		c18.49-7.64,36.68-37.95,36.68-37.95C428.4,475.34,437.42,459.4,444.51,446.48z M219.19,407.96c-5.1-2.06-10.58,3.06-12.42,4.78
		c-3.91,3.65-7.93,10.28-5.73,14.34c0.2,0.37,0.76,1.4,1.91,1.91c2.28,1.01,4.81-0.93,11.47-5.73c8.15-5.88,9.43-6.65,9.56-8.6
		C224.14,411.85,221.77,409,219.19,407.96z M518.6,410.21c-0.47-0.76-1.81-0.74-3.38-0.72c-8.77,0.12-16.67,7.99-16.71,13.29
		c0,0.52-0.01,2.26,0.95,2.72c0.92,0.44,2.26-0.48,2.86-0.91C512.89,417.17,519.87,412.27,518.6,410.21z M272.22,412.44
		c2.69,0.14,5.66-4.99,4.33-7.07c-0.4-0.62-1.16-0.93-1.81-0.95c-2.74-0.07-5.56,4.95-4.22,7.05
		C270.88,412.05,271.56,412.41,272.22,412.44z"/>
	<path class="st0" d="M95.41,297.91c-0.2,0.72-0.42,1.78-0.38,3.06c0.11,3.53,1.84,6.47,4.63,9.03c4.17,3.82,8.51,7.46,12.77,11.18
		c-0.03-2.13-0.34-4.62-1.24-7.27C107.69,303.59,97.97,299.02,95.41,297.91z"/>
	<path class="st0" d="M103.21,344.85c3.29,3.99,7.82,5.82,12.42,7.67c4.53,1.82,9.65,2.28,13.51,5.75
		C124.23,348.71,115.07,340.4,103.21,344.85z"/>
	<path class="st0" d="M129.98,325.89c-0.09-0.34-1.41-5.11-4.94-8.23c-0.52-0.46-1.43-1.19-2.47-2.47
		c-1.26-1.56-2.02-3.06-2.47-4.12c-0.62,1.71-1.29,4.35-0.82,7.41c0.45,2.95,1.74,4.81,3.29,7.41c1.53,2.57,3.62,6.38,5.76,11.44
		C129.23,335.64,131.34,331.02,129.98,325.89z"/>
	<path class="st0" d="M111.05,330.83c-5.48-2.31-12.88,0.42-18.93,6.59c0.94,0.32,2.36,0.71,4.12,0.82
		c3.49,0.22,5.77-0.85,10.7-2.47c1.84-0.6,4.5-1.43,7.8-2.3C113.44,332.08,112.14,331.29,111.05,330.83z"/>
	<path class="st0" d="M83.06,310.26c-5.63-1.08-9.95,1.73-10.81,2.32c6.38,4.72,13.92,4.73,21.3,6.28
		C93.3,318.26,90.31,311.65,83.06,310.26z"/>
	<path class="st0" d="M39.43,356.35c-1.16,1.85-1.52,3.71-1.65,4.94c2.21,0.03,5.82-0.24,9.73-2.06c7.36-3.42,10.5-9.87,11.36-11.82
		c-5.63,0.91-9.9,2.55-12.73,3.87C42.18,353.13,40.54,354.58,39.43,356.35z"/>
	<path class="st0" d="M60.01,323.43c-5.4,1.24-8.69,4.48-9.88,5.76c2.54,0.45,6.4,0.83,10.99,0.07c5.34-0.89,9.33-2.93,11.67-4.36
		C71.32,324.18,66.31,321.98,60.01,323.43z"/>
	<path class="st0" d="M75.65,344c5.73-5.08,8.54-8.18,10.04-10.13c0.39-0.51,1.67-2.2,3.7-4.17c1.3-1.26,2.47-2.19,3.24-2.78
		c-1.29,0.05-7.07,0.42-11.82,5.18C76.04,336.9,75.7,342.72,75.65,344z"/>
	<path class="st0" d="M138.21,342.36c-1.85,3.42-2.69,5.02-3.29,7.41c-0.67,2.63-0.71,4.91-0.65,6.45
		c1.18-0.71,8.38-5.15,9.76-13.75c0.64-3.97-0.22-7.28-0.88-9.16C141.97,335.45,140.27,338.55,138.21,342.36z"/>
	<path d="M124.4,377.46c0.01,0.24,0.01,0.38,0.03,0.38C124.44,377.84,124.44,377.7,124.4,377.46z"/>
	<path d="M143.24,330.48c-0.34,0.79-0.93,2.09-1.73,3.65c-3.3,6.4-4.85,7.75-6.59,11.52c-2.81,6.09-2.4,10.95-3.08,10.9
		c-0.58-0.04-0.47-3.55-1.85-10.9c-0.7-3.72-0.72-3.15-0.82-4.12c-0.62-6.01,2.58-8,2.46-12.92c-0.06-2.29-0.53-5.19-3.95-9.31
		c-2.64-3.18-6.12-5.78-6.94-10.44c-1.01,1.68-1.85,3.32-2.14,5.04c-0.97,5.91,1.33,10.98,4.32,15.87c1.34,2.2,2.52,4.5,3.78,6.75
		c-2.91-2.35-5.59-4.78-8.23-7.26c-0.74-0.7-1.34-1.55-2-2.33c-1.23-1.46-1.93-2.97-2.33-3.82c-1.41-3.01-0.82-4.76-1.43-7.91
		c-0.59-3.07-1.88-5.14-3.29-7.41c-4.4-7.08-12.2-10.24-14.94-11.23c-0.13,2.13-0.58,4.11-0.3,5.97c0.56,3.65,2.46,6.76,5.22,9.2
		c3.95,3.48,5.28,4.01,9.13,7.61c3.04,2.84,5.16,5.77,6.65,8.21c-4.27-2.7-8-4.13-10.7-4.94c-4.3-1.3-6.1-1.06-8.5-3.03
		c-2.71-2.22-2.34-4.07-5.3-6.65c-2.65-2.31-5.5-3.07-6.85-3.39c-5.02-1.18-9.45,0.82-14.28,1.96c1.05,1.25,2.77,3.03,5.3,4.52
		c1.47,0.87,3.73,1.93,10.96,3.24c6.82,1.23,9.59,1.14,9.62,1.7c0.06,1.03-9.26,1.13-14.94,3.27c-0.6,0.23-2.43,0.96-4.66,0.59
		c-0.82-0.14-1.64-0.41-2.45-0.83c-4.6-2.42-9.59-3.58-14.47-1.32c-4.1,1.9-7.83,4.61-12.12,7.21c3.18,0.81,7.81,1.58,13.24,0.96
		c9.31-1.06,16.07-5.64,16.46-4.94c0.37,0.67-6.67,3.32-11.52,10.7c-2.8,4.25-2.13,5.91-4.94,8.23c-3.01,2.49-4.61,1.58-11.52,4.12
		c-3.06,1.12-6.64,2.44-9.05,5.76c-1.95,2.69-2.38,5.63-2.47,7.41c2.12,0.25,5.4,0.35,9.05-0.82c7.79-2.5,11.86-9.02,13.54-11.71
		c0.29-0.47,0.9-1.61,1.57-2.99c1.69-3.43,2.59-6.06,2.82-6.69c2.29-6.21,11.24-11.79,11.63-12.03c5.36-3.25,11.64-4.84,18.78-4.87
		c1.23-0.01,2.45,0.34,3.68,0.52c-2.65,1.09-5.22,1.84-7.83,2.38c-11.9,2.48-14.47,8.98-15.57,20.19c5.02-3.41,8.39-6.86,10.58-9.46
		c3.61-4.28,4.89-7.27,9.35-10.01c4.04-2.48,7.05-2.52,8.52-2.41c1,0.08,2.01,0.29,3.04,0.66c4.94,1.78,8.69,3.71,9.4,4.14
		c7.39,4.5,12.19,10.63,11.98,10.85c-0.14,0.15-2.37-2.23-7.41-5.76c-4.24-2.97-8.33-5.25-12.98-5.44c-0.14-0.01-0.29-0.01-0.5-0.01
		c-2.86,0.03-5.71,1.27-9.24,3.72c-2.41,1.67-4.82,3.33-7.38,5.1c2.79,2.54,6.14,2.7,9.58,1.9c4-0.94,7.98-2.01,11.9-3.24
		c5.11-1.6,9.54-0.58,13.08,3.33c1.51,1.67,2.72,3.76,3.56,5.87c1.53,3.85,2.51,7.87,1.95,12.18c-2.94-5.49-6.37-10.47-11.72-13.86
		c-5.9-3.73-11.71-1.96-17.81-0.04c1.1,1.17,2.1,2.06,2.9,3.1c0.99,1.3,2.09,2.46,3.3,3.47c2.42,2.04,4.73,3.12,6.69,3.89
		c4.48,1.76,5.27,0.73,10.09,2.47c3.44,1.24,5.86,2.11,6.48,4.17c0.39,1.3,0.06,3.1-0.51,6.16c-0.14,0.74-0.31,1.46-0.31,1.46
		c-0.13,0.56-0.33,1.26-0.65,2.23c-1.04,3.09-2.39,7.1-3.1,6.96c-0.93-0.18-1.08-7.6-2.01-11.3c-0.06-0.26-0.35-1.32-1.24-2.24
		c-0.26-0.27-1.07-1.1-1.62-0.88c-0.66,0.26-0.68,1.94-0.44,3.12c0.35,1.67,1.22,2.73,1.73,3.45c2.27,3.13,2.51,6.66,2.57,7.79
		c0.03,0.23,0.04,0.37,0.03,0.38c-0.01,0-0.01-0.14-0.03-0.38c-0.11-0.8-0.55-2.75-1.83-4.65c-0.52-0.77-1.46-2.16-2.32-1.96
		c-0.65,0.15-1.13,1.16-0.97,1.96c0.17,0.85,1.06,1.27,1.65,1.65c0,0,2.14,1.01,3.29,4.94c1.22,4.16-9.51,14.18-9.51,14.18
		c-11.46,10.71-15.79,12.14-21.75,19.9c-1.95,2.53-3.3,4.93-6.02,9.72c-10.36,18.3-11.73,29.3-14.81,29.16
		c-2.62-0.12-4.47-8.21-6.02-18.51c-5.23-34.78-2.33-63.45-9.26-65.25c-2.15-0.56-6.47,0.31-9.26,1.39
		c-2.55,0.99-3.06,1.78-3.24,2.31c-0.84,2.44,2.92,5.75,3.7,6.48c6.55,6.1,9.52,20.82,11.57,37.02
		c1.27,10.03,5.51,43.49,11.76,43.96c4.03,0.3,5.34-13.37,19.71-37.94c0,0,9.46-16.18,25.19-25.58c2.16-1.29,6.27-2.11,6.74-2.19
		c0.72-0.13,1.27-0.02,1.39,0c0.44,0.09,0.71,0.23,1.1,0.42c2.22,1.09,2.76,1.07,3.01,1.03c0.2-0.03,0.84-0.14,0.97-0.52
		c0.14-0.41-0.34-1.07-0.93-1.39c-1.28-0.69-2.45,0.55-4.63,0c-0.25-0.06-0.45-0.14-0.57-0.18c1.68-0.31,4.27-1.1,5.76-3.29
		c0.45-0.66,1.22-2.07,0.82-2.47c-0.43-0.44-2.27,0.3-3.29,1.65c-0.53,0.69-0.38,0.95-0.82,1.65c-0.57,0.91-1.41,1.42-4.12,2.47
		c-1.25,0.48-2.79,1.05-4.6,1.62c0.95-1.14,1.7-2.12,2.21-2.82c6.71-9.13,11.55-21.55,12.26-29.26c0.06-0.63,0.15-1.87,0.82-3.29
		c1.46-3.07,4.29-3.69,6.59-5.76c0.16-0.15,4.04-3.87,5.76-9.05C145.79,341.84,146.22,337.24,143.24,330.48z M99.66,310
		c-2.8-2.56-4.53-5.49-4.63-9.03c-0.04-1.28,0.18-2.35,0.38-3.06c2.56,1.11,12.28,5.68,15.78,16c0.9,2.65,1.21,5.14,1.24,7.27
		C108.17,317.46,103.84,313.82,99.66,310z M72.26,312.57c0.86-0.59,5.17-3.4,10.81-2.32c7.25,1.4,10.24,8,10.5,8.59
		C86.18,317.31,78.63,317.29,72.26,312.57z M61.13,329.26c-4.59,0.76-8.45,0.38-10.99-0.07c1.18-1.29,4.48-4.52,9.88-5.76
		c6.29-1.45,11.31,0.76,12.79,1.47C70.46,326.33,66.47,328.37,61.13,329.26z M47.52,359.23c-3.92,1.82-7.53,2.08-9.73,2.06
		c0.12-1.23,0.49-3.09,1.65-4.94c1.11-1.77,2.75-3.22,6.72-5.07c2.83-1.32,7.11-2.96,12.73-3.87
		C58.02,349.36,54.89,355.81,47.52,359.23z M89.39,329.71c-2.04,1.96-3.31,3.66-3.7,4.17c-1.5,1.95-4.3,5.05-10.04,10.13
		c0.04-1.28,0.39-7.1,5.16-11.89c4.75-4.76,10.53-5.13,11.82-5.18C91.86,327.52,90.7,328.45,89.39,329.71z M106.93,335.77
		c-4.93,1.62-7.21,2.69-10.7,2.47c-1.76-0.11-3.18-0.5-4.12-0.82c6.05-6.16,13.46-8.9,18.93-6.59c1.09,0.46,2.39,1.24,3.69,2.64
		C111.43,334.34,108.77,335.17,106.93,335.77z M122.57,325.89c-1.55-2.6-2.84-4.46-3.29-7.41c-0.47-3.06,0.21-5.7,0.82-7.41
		c0.45,1.05,1.2,2.56,2.47,4.12c1.04,1.28,1.95,2.01,2.47,2.47c3.52,3.13,4.85,7.89,4.94,8.23c1.36,5.12-0.76,9.74-1.64,11.44
		C126.2,332.28,124.11,328.47,122.57,325.89z M115.63,352.52c-4.59-1.85-9.13-3.68-12.42-7.67c11.86-4.45,21.02,3.87,25.92,13.42
		C125.28,354.79,120.15,354.34,115.63,352.52z M123.97,372.75c-0.27,0.09-0.65-1.98-2.4-4.62c-0.27-0.4-0.83-1.22-0.84-2.32
		c0-0.46,0.09-1.29,0.46-1.39c0.52-0.14,1.3,1.23,1.39,1.39c0.59,1.04,0.65,1.86,0.93,3.7C123.89,372.06,124.12,372.7,123.97,372.75
		z M121.32,374.14c-0.66-0.45-1.52-0.87-1.51-1.5c0.01-0.38,0.32-0.78,0.68-0.85c0.61-0.13,1.23,0.7,1.71,1.36
		c0.6,0.83,1.41,2.19,1.9,4.23C123.18,375.64,122.14,374.69,121.32,374.14z M126.74,394.04c0.99-0.08,1.43-0.27,1.85,0
		c0.35,0.23,0.6,0.72,0.46,0.93c-0.16,0.26-0.99,0.22-3.7-0.93C125.68,394.06,126.16,394.08,126.74,394.04z M126.28,391.26
		c0.28-0.49,0.15-0.65,0.51-1.31c0.2-0.35,0.62-1.1,1.48-1.45c0.3-0.12,0.83-0.34,1.03-0.14c0.31,0.33-0.51,1.68-1.35,2.52
		c-0.49,0.49-1.57,1.39-3.52,1.77C125.54,392.25,126.03,391.7,126.28,391.26z M144.03,342.47c-1.38,8.6-8.58,13.04-9.76,13.75
		c-0.07-1.54-0.02-3.82,0.65-6.45c0.6-2.39,1.44-3.99,3.29-7.41c2.06-3.81,3.76-6.91,4.94-9.05
		C143.82,335.19,144.67,338.49,144.03,342.47z"/>
</g>
<g id="Layer_6">
</g>
<g id="Layer_7">
</g>
<g id="Layer_8">
</g>
</svg>
